<svg id="Layer_1" data-name="Layer 1" xmlns="http://www.w3.org/2000/svg" viewBox="0 0 600 140"><ellipse cx="580.14" cy="90.38" rx="14.86" ry="14.75"/><ellipse cx="580.56" cy="123.3" rx="14.44" ry="14.7"/><path d="M435.07,138h0c5.54,0,10-4.94,10-11V29.78c0-6.11-4.47-11.08-10-11.08h0c-5.54,0-10,4.94-10,11V127C425,133.06,429.53,138,435.07,138Z"/><path d="M519.5,14.48Q510.67,2.55,499,2.56H458.2a10,10,0,0,0-10,10v7a10,10,0,0,0,10,10h40.24q4,0,6.92,3.93a15.31,15.31,0,0,1,2.9,9.34v3.79a10,10,0,0,1-10,10H479.46a10,10,0,0,0-10,10v7a10,10,0,0,0,10,10h18.78a10,10,0,0,1,10,10V128a10,10,0,0,0,10,10h0a10,10,0,0,0,10-10V42.11A45.22,45.22,0,0,0,519.5,14.48Z"/><path d="M314.4,84.39h45.67a5.61,5.61,0,0,1,5.6,5.61v15.22a5.61,5.61,0,0,0,5.61,5.61h9.05a5.61,5.61,0,0,0,5.61-5.61V8.72a5.61,5.61,0,0,0-5.61-5.61h-9.05a5.62,5.62,0,0,0-5.61,5.61V57.41H315c-2.7,0-5-1.31-7-3.91a15.06,15.06,0,0,1-2.94-9.31V8.72a5.61,5.61,0,0,0-5.61-5.61h-9a5.62,5.62,0,0,0-5.61,5.61V45q0,15.92,8.82,27.65T314.4,84.39Z"/><path d="M365.6,116.63A5.61,5.61,0,0,0,360,111H315c-2.7,0-5-1.31-7-3.91a15.06,15.06,0,0,1-2.94-9.31h0a5.61,5.61,0,0,0-5.61-5.6h-9a5.61,5.61,0,0,0-5.61,5.6v.81q0,15.92,8.82,27.66T314.4,138H360a5.61,5.61,0,0,0,5.61-5.61Z"/><path d="M167.53,34.24c1.94-2.6,4.24-3.9,6.92-3.9H235.1a9.75,9.75,0,0,0,9.75-9.75V13.17a9.76,9.76,0,0,0-9.75-9.75H173.85q-11.64,0-20.46,11.71t-8.82,27.59v31.7a9.74,9.74,0,0,0,9.74,9.75H215a9.74,9.74,0,0,1,9.75,9.75v17h20.06V67a9.75,9.75,0,0,0-9.75-9.74H174.37a9.76,9.76,0,0,1-9.75-9.75v-4A15.12,15.12,0,0,1,167.53,34.24Z"/><path d="M154.31,138H235a9.75,9.75,0,0,0,9.75-9.75V111l-90.46.1a9.73,9.73,0,0,0-9.73,9.74v7.43A9.74,9.74,0,0,0,154.31,138Z"/><path d="M14.36,138h0c5.53,0,10-4.94,10-11V33.31c0-.9,0-2.15,0-3.53,0-6.11-4.48-11.08-10-11.08h0c-5.54,0-10,4.94-10,11V127C4.33,133.06,8.82,138,14.36,138Z"/><path d="M98.78,14.48Q90,2.55,78.33,2.56H37.49a10,10,0,0,0-10,10v7a10,10,0,0,0,10,10H77.72c2.68,0,5,1.31,6.92,3.93a15.25,15.25,0,0,1,2.91,9.34v3.79a10,10,0,0,1-10,10H58.74a10,10,0,0,0-10,10v7a10,10,0,0,0,10,10H77.52a10,10,0,0,1,10,10V128a10,10,0,0,0,10,10h0a10,10,0,0,0,10-10V42.11A45.23,45.23,0,0,0,98.78,14.48Z"/></svg>